<svg width="28" height="41" viewBox="0 0 28 41" fill="none" xmlns="http://www.w3.org/2000/svg">
<mask id="mask0_184_10076" style="mask-type:luminance" maskUnits="userSpaceOnUse" x="0" y="0" width="28" height="41">
<path d="M0.0625 0.536499H27.8802V40.4063H0.0625V0.536499Z" fill="white"/>
</mask>
<g mask="url(#mask0_184_10076)">
<path d="M28.1563 18.4167V19.8646C28.1563 27.1355 22.6042 33.1355 15.5156 33.8386V37.7136H21.2448C22.026 37.7136 22.6667 38.3542 22.6667 39.1407C22.6667 39.9271 22.026 40.5678 21.2448 40.5678H6.97396C6.1875 40.5678 5.54688 39.9271 5.54688 39.1407C5.54688 38.3542 6.1875 37.7136 6.97396 37.7136H12.6563V33.8334C5.59375 33.1094 0.0625 27.1198 0.0625 19.8646V18.4167C0.0625 17.6302 0.703125 16.9896 1.48958 16.9896C2.27083 16.9896 2.91146 17.6302 2.91146 18.4167V19.8646C2.91146 26.0417 7.93229 31.0625 14.1094 31.0625C20.2813 31.0625 25.3021 26.0417 25.3021 19.8646V18.4167C25.3021 17.6302 25.9427 16.9896 26.7292 16.9896C27.5156 16.9896 28.1563 17.625 28.1563 18.4167ZM14.1094 28.2084C18.5781 28.2084 22.2031 24.5834 22.2031 20.1146V8.63025C22.2031 4.1615 18.5781 0.536499 14.1094 0.536499C9.64063 0.536499 6.01042 4.1615 6.01042 8.63025V20.1146C6.01042 24.5834 9.64063 28.2084 14.1094 28.2084Z" fill="#372E17"/>
</g>
</svg>
